<svg xmlns="http://www.w3.org/2000/svg" width="512" height="512" fill="none">
  <path fill="gold" d="M512 256A256.004 256.004 0 0 0 353.967 19.487 256.001 256.001 0 0 0 0 256h512Z"/>
  <path fill="#000" d="M512 256a256.004 256.004 0 0 1-158.033 236.513 256.004 256.004 0 0 1-278.986-55.494A255.994 255.994 0 0 1 0 256h512Z"/>
  <path fill="gold" d="M282.312 369.504a43.614 43.614 0 0 1-13.066 7.676c-4.805 1.758-9.805 2.636-15 2.636-3.984 0-7.832-.527-11.543-1.582a42.983 42.983 0 0 1-10.312-4.336 46.358 46.358 0 0 1-8.789-6.796 43.352 43.352 0 0 1-6.797-8.79 45.7 45.7 0 0 1-4.395-10.429c-1.015-3.711-1.523-7.559-1.523-11.543 0-3.985.508-7.813 1.523-11.485a44.834 44.834 0 0 1 4.395-10.312 41.297 41.297 0 0 1 6.797-8.789 43.382 43.382 0 0 1 8.789-6.797 43.023 43.023 0 0 1 10.312-4.336c3.711-1.055 7.559-1.582 11.543-1.582 5.195 0 10.195.899 15 2.695a42.628 42.628 0 0 1 13.066 7.618L273.523 318a27.78 27.78 0 0 0-8.789-6.035 25.401 25.401 0 0 0-10.488-2.227c-3.672 0-7.129.703-10.371 2.11-3.203 1.406-6.016 3.32-8.437 5.742-2.422 2.383-4.336 5.195-5.743 8.437-1.406 3.203-2.109 6.641-2.109 10.313 0 3.711.703 7.187 2.109 10.43 1.407 3.242 3.321 6.074 5.743 8.496 2.421 2.422 5.234 4.336 8.437 5.742 3.242 1.406 6.699 2.109 10.371 2.109a24.8 24.8 0 0 0 6.152-.762 28.2 28.2 0 0 0 5.684-2.109V336.34h16.23v33.164ZM354.324 378h-3.867l-6.211-8.613a52.76 52.76 0 0 1-4.863 3.867 37.955 37.955 0 0 1-5.332 3.105 34.096 34.096 0 0 1-5.801 2.051 23.645 23.645 0 0 1-5.977.762c-4.414 0-8.574-.742-12.48-2.227-3.867-1.484-7.266-3.633-10.195-6.445-2.891-2.852-5.176-6.328-6.856-10.43-1.68-4.101-2.519-8.769-2.519-14.004 0-4.882.839-9.355 2.519-13.418 1.68-4.101 3.965-7.617 6.856-10.546a31.081 31.081 0 0 1 10.195-6.797c3.906-1.641 8.066-2.461 12.48-2.461 2.032 0 4.043.254 6.036.761a31.24 31.24 0 0 1 5.8 2.11 34.776 34.776 0 0 1 5.332 3.164 42.767 42.767 0 0 1 4.805 3.926l6.211-7.442h3.867V378Zm-16.113-31.934c0-2.187-.43-4.296-1.289-6.328-.82-2.07-1.953-3.886-3.399-5.449a16.316 16.316 0 0 0-5.097-3.809 13.354 13.354 0 0 0-6.153-1.464c-2.187 0-4.257.371-6.211 1.113a14.43 14.43 0 0 0-5.039 3.281c-1.406 1.445-2.519 3.242-3.339 5.391-.821 2.109-1.231 4.531-1.231 7.265 0 2.735.41 5.176 1.231 7.325.82 2.109 1.933 3.886 3.339 5.332a14.43 14.43 0 0 0 5.039 3.281c1.954.742 4.024 1.113 6.211 1.113 2.188 0 4.239-.469 6.153-1.406a17.592 17.592 0 0 0 5.097-3.809 18.262 18.262 0 0 0 3.399-5.449 16.515 16.515 0 0 0 1.289-6.387Zm47.227-47.871c0 1.485-.293 2.871-.879 4.16a10.623 10.623 0 0 1-2.286 3.399c-.976.937-2.128 1.699-3.457 2.285-1.289.547-2.675.82-4.16.82-1.484 0-2.89-.273-4.218-.82a12.087 12.087 0 0 1-3.399-2.285 12.087 12.087 0 0 1-2.285-3.399c-.547-1.289-.82-2.675-.82-4.16 0-1.445.273-2.812.82-4.101.586-1.328 1.348-2.461 2.285-3.399a10.636 10.636 0 0 1 3.399-2.285 10.333 10.333 0 0 1 4.218-.879c1.485 0 2.871.293 4.16.879a10.462 10.462 0 0 1 3.457 2.285c.977.938 1.739 2.071 2.286 3.399a9.794 9.794 0 0 1 .879 4.101ZM382.684 378H366.57v-62.754h16.114V378Zm28.242 0H394.93v-62.754h3.867l5.273 6.094a27.666 27.666 0 0 1 8.731-5.391 27.795 27.795 0 0 1 10.254-1.933c3.828 0 7.441.742 10.84 2.226 3.398 1.446 6.367 3.457 8.906 6.035 2.539 2.539 4.531 5.528 5.976 8.965 1.485 3.399 2.227 7.031 2.227 10.899V378h-15.996v-35.859c0-1.641-.313-3.184-.938-4.629a11.961 11.961 0 0 0-2.578-3.867 12.159 12.159 0 0 0-3.808-2.579 11.54 11.54 0 0 0-4.629-.937c-1.68 0-3.262.312-4.746.937a11.979 11.979 0 0 0-3.868 2.579 11.977 11.977 0 0 0-2.578 3.867 11.534 11.534 0 0 0-.937 4.629V378Z"/>
  <path fill="#000" d="M129.32 207.387a42.802 42.802 0 0 1-13.125 7.734 42.946 42.946 0 0 1-15.058 2.695c-3.985 0-7.832-.527-11.543-1.582a44.09 44.09 0 0 1-10.371-4.336 45.114 45.114 0 0 1-8.79-6.855 45.108 45.108 0 0 1-6.855-8.789 45.987 45.987 0 0 1-4.394-10.371c-1.016-3.711-1.524-7.559-1.524-11.543 0-3.985.508-7.832 1.524-11.543 1.054-3.711 2.52-7.168 4.394-10.371a44.34 44.34 0 0 1 6.856-8.848 43.382 43.382 0 0 1 8.789-6.797 42.669 42.669 0 0 1 10.37-4.394c3.712-1.055 7.56-1.582 11.544-1.582 5.195 0 10.215.898 15.058 2.695a41.304 41.304 0 0 1 13.125 7.734l-8.906 14.649a24.84 24.84 0 0 0-8.73-6.094 26.421 26.421 0 0 0-10.547-2.168c-3.711 0-7.188.703-10.43 2.109-3.242 1.407-6.074 3.321-8.496 5.743-2.422 2.382-4.336 5.215-5.742 8.496-1.406 3.242-2.11 6.699-2.11 10.371 0 3.672.704 7.129 2.11 10.371 1.406 3.203 3.32 6.016 5.742 8.437 2.422 2.422 5.254 4.336 8.496 5.743 3.242 1.406 6.719 2.109 10.43 2.109 3.672 0 7.187-.703 10.547-2.109a25.511 25.511 0 0 0 8.73-6.153l8.906 14.649ZM195.941 216h-3.867l-6.211-8.613a52.76 52.76 0 0 1-4.863 3.867 37.955 37.955 0 0 1-5.332 3.105 34.096 34.096 0 0 1-5.801 2.051 23.643 23.643 0 0 1-5.976.762c-4.414 0-8.575-.742-12.481-2.227-3.867-1.484-7.265-3.633-10.195-6.445-2.891-2.852-5.176-6.328-6.856-10.43-1.679-4.101-2.519-8.769-2.519-14.004 0-4.882.84-9.355 2.519-13.418 1.68-4.101 3.965-7.617 6.856-10.546a31.092 31.092 0 0 1 10.195-6.797c3.906-1.641 8.067-2.461 12.481-2.461 2.031 0 4.043.254 6.035.761a31.25 31.25 0 0 1 5.801 2.11 34.824 34.824 0 0 1 5.332 3.164 42.846 42.846 0 0 1 4.804 3.926l6.211-7.442h3.867V216Zm-16.113-31.934c0-2.187-.43-4.296-1.289-6.328-.82-2.07-1.953-3.886-3.398-5.449a16.331 16.331 0 0 0-5.098-3.809 13.353 13.353 0 0 0-6.152-1.464c-2.188 0-4.258.371-6.211 1.113a14.42 14.42 0 0 0-5.039 3.281c-1.407 1.445-2.52 3.242-3.34 5.391-.821 2.109-1.231 4.531-1.231 7.265 0 2.735.41 5.176 1.231 7.325.82 2.109 1.933 3.886 3.34 5.332a14.42 14.42 0 0 0 5.039 3.281c1.953.742 4.023 1.113 6.211 1.113 2.187 0 4.238-.469 6.152-1.406a17.61 17.61 0 0 0 5.098-3.809 18.28 18.28 0 0 0 3.398-5.449 16.515 16.515 0 0 0 1.289-6.387Zm44.473 55.84h-16.113v-86.66h3.867l6.386 7.559a42.53 42.53 0 0 1 4.747-3.867 34.978 34.978 0 0 1 5.332-3.106 31.236 31.236 0 0 1 5.8-2.109 24.332 24.332 0 0 1 6.035-.762c4.415 0 8.555.801 12.422 2.402 3.907 1.563 7.305 3.789 10.196 6.68 2.929 2.891 5.234 6.387 6.914 10.488 1.679 4.063 2.519 8.574 2.519 13.535 0 5.157-.84 9.805-2.519 13.946-1.68 4.101-3.985 7.597-6.914 10.488-2.891 2.852-6.289 5.039-10.196 6.562-3.867 1.524-8.007 2.286-12.422 2.286a19.42 19.42 0 0 1-4.218-.469 32.767 32.767 0 0 1-4.102-1.231 59.53 59.53 0 0 1-3.984-1.816 85.005 85.005 0 0 1-3.75-2.051v28.125Zm32.051-55.84c0-2.656-.43-5.039-1.29-7.148-.82-2.109-1.953-3.887-3.398-5.332a14.59 14.59 0 0 0-5.098-3.398c-1.953-.782-4.023-1.172-6.211-1.172-2.187 0-4.257.39-6.21 1.172a14.732 14.732 0 0 0-5.04 3.398c-1.445 1.445-2.597 3.223-3.457 5.332-.82 2.109-1.23 4.492-1.23 7.148 0 2.539.41 4.864 1.23 6.973.86 2.109 2.012 3.906 3.457 5.391a15.485 15.485 0 0 0 5.04 3.457c1.953.82 4.023 1.23 6.21 1.23 2.188 0 4.258-.41 6.211-1.23a15.313 15.313 0 0 0 5.098-3.457c1.445-1.485 2.578-3.282 3.398-5.391.86-2.109 1.29-4.434 1.29-6.973Zm43.828-47.871c0 1.485-.293 2.871-.879 4.16a10.636 10.636 0 0 1-2.285 3.399c-.977.937-2.129 1.699-3.457 2.285-1.289.547-2.676.82-4.161.82-1.484 0-2.89-.273-4.218-.82a12.101 12.101 0 0 1-3.399-2.285 12.087 12.087 0 0 1-2.285-3.399c-.547-1.289-.82-2.675-.82-4.16 0-1.445.273-2.812.82-4.101.586-1.328 1.348-2.461 2.285-3.399a10.647 10.647 0 0 1 3.399-2.285 10.333 10.333 0 0 1 4.218-.879c1.485 0 2.872.293 4.161.879a10.483 10.483 0 0 1 3.457 2.285c.976.938 1.738 2.071 2.285 3.399a9.794 9.794 0 0 1 .879 4.101ZM297.426 216h-16.114v-62.754h16.114V216Zm43.711 0c-3.867 0-7.5-.723-10.899-2.168-3.398-1.484-6.386-3.496-8.965-6.035-2.539-2.578-4.55-5.567-6.035-8.965-1.445-3.398-2.168-7.031-2.168-10.898v-18.633h-7.793v-15.938h7.793v-25.078h15.938v25.078h24.258v15.938h-24.258v18.633c0 1.679.312 3.261.937 4.746a12.161 12.161 0 0 0 2.578 3.808 12.798 12.798 0 0 0 3.868 2.637c1.484.625 3.066.937 4.746.937h12.129V216h-12.129Zm81.914 0h-3.867l-6.211-8.613a52.908 52.908 0 0 1-4.864 3.867 37.898 37.898 0 0 1-5.332 3.105 34.086 34.086 0 0 1-5.8 2.051 23.656 23.656 0 0 1-5.977.762c-4.414 0-8.574-.742-12.48-2.227-3.868-1.484-7.266-3.633-10.196-6.445-2.89-2.852-5.176-6.328-6.855-10.43-1.68-4.101-2.52-8.769-2.52-14.004 0-4.882.84-9.355 2.52-13.418 1.679-4.101 3.965-7.617 6.855-10.546a31.085 31.085 0 0 1 10.196-6.797c3.906-1.641 8.066-2.461 12.48-2.461 2.031 0 4.043.254 6.035.761a31.25 31.25 0 0 1 5.801 2.11 34.824 34.824 0 0 1 5.332 3.164 42.857 42.857 0 0 1 4.805 3.926l6.211-7.442h3.867V216Zm-16.113-31.934c0-2.187-.43-4.296-1.29-6.328-.82-2.07-1.953-3.886-3.398-5.449a16.32 16.32 0 0 0-5.098-3.809 13.35 13.35 0 0 0-6.152-1.464c-2.188 0-4.258.371-6.211 1.113a14.42 14.42 0 0 0-5.039 3.281c-1.406 1.445-2.52 3.242-3.34 5.391-.82 2.109-1.23 4.531-1.23 7.265 0 2.735.41 5.176 1.23 7.325.82 2.109 1.934 3.886 3.34 5.332a14.42 14.42 0 0 0 5.039 3.281c1.953.742 4.023 1.113 6.211 1.113 2.188 0 4.238-.469 6.152-1.406a17.597 17.597 0 0 0 5.098-3.809 18.28 18.28 0 0 0 3.398-5.449c.86-2.07 1.29-4.199 1.29-6.387ZM451.41 216h-16.113v-87.715h16.113V216Z"/>
</svg>
